<mxfile host="app.diagrams.net" modified="2023-02-22T00:27:37.761Z" agent="5.0 (Windows)" etag="49B_TPtlyBQizf3KDlPc" version="20.8.18" type="github" pages="7">
  <diagram id="E1EfsuxhSvi0O3DrFGvF" name="Network Overview">
    <mxGraphModel dx="1152" dy="1152" grid="1" gridSize="10" guides="1" tooltips="1" connect="1" arrows="1" fold="1" page="1" pageScale="1" pageWidth="850" pageHeight="1100" math="0" shadow="0">
      <root>
        <mxCell id="0" />
        <mxCell id="1" parent="0" />
        <mxCell id="7sLhB7o1R7ILvc8eoV0f-6" style="edgeStyle=orthogonalEdgeStyle;rounded=0;orthogonalLoop=1;jettySize=auto;html=1;entryX=0.1;entryY=1;entryDx=0;entryDy=0;entryPerimeter=0;" parent="1" source="7sLhB7o1R7ILvc8eoV0f-2" target="7sLhB7o1R7ILvc8eoV0f-5" edge="1">
          <mxGeometry relative="1" as="geometry" />
        </mxCell>
        <UserObject label="SuperMicro" link="data:page/id,ElCHXQXP82IoNYrYS7ia" id="7sLhB7o1R7ILvc8eoV0f-2">
          <mxCell style="sketch=0;aspect=fixed;pointerEvents=1;shadow=0;dashed=0;html=1;strokeColor=none;labelPosition=center;verticalLabelPosition=bottom;verticalAlign=top;align=center;fillColor=#00188D;shape=mxgraph.mscae.enterprise.device" parent="1" vertex="1">
            <mxGeometry x="140" y="510" width="50" height="26" as="geometry" />
          </mxCell>
        </UserObject>
        <mxCell id="7sLhB7o1R7ILvc8eoV0f-8" style="edgeStyle=orthogonalEdgeStyle;rounded=0;orthogonalLoop=1;jettySize=auto;html=1;entryX=0.9;entryY=1;entryDx=0;entryDy=0;entryPerimeter=0;" parent="1" source="7sLhB7o1R7ILvc8eoV0f-3" target="7sLhB7o1R7ILvc8eoV0f-5" edge="1">
          <mxGeometry relative="1" as="geometry" />
        </mxCell>
        <UserObject label="Ceph" link="data:page/id,j83oYdBpqzVburkKQ1tJ" id="7sLhB7o1R7ILvc8eoV0f-3">
          <mxCell style="sketch=0;aspect=fixed;pointerEvents=1;shadow=0;dashed=0;html=1;strokeColor=none;labelPosition=center;verticalLabelPosition=bottom;verticalAlign=top;align=center;fillColor=#00188D;shape=mxgraph.mscae.enterprise.device" parent="1" vertex="1">
            <mxGeometry x="280" y="510" width="50" height="26" as="geometry" />
          </mxCell>
        </UserObject>
        <mxCell id="7sLhB7o1R7ILvc8eoV0f-7" style="edgeStyle=orthogonalEdgeStyle;rounded=0;orthogonalLoop=1;jettySize=auto;html=1;entryX=0.5;entryY=1;entryDx=0;entryDy=0;entryPerimeter=0;" parent="1" source="7sLhB7o1R7ILvc8eoV0f-4" target="7sLhB7o1R7ILvc8eoV0f-5" edge="1">
          <mxGeometry relative="1" as="geometry" />
        </mxCell>
        <UserObject label="JellyHive" link="data:page/id,f75ZTOVikK77dWQOuikO" id="7sLhB7o1R7ILvc8eoV0f-4">
          <mxCell style="sketch=0;aspect=fixed;pointerEvents=1;shadow=0;dashed=0;html=1;strokeColor=none;labelPosition=center;verticalLabelPosition=bottom;verticalAlign=top;align=center;fillColor=#00188D;shape=mxgraph.mscae.enterprise.device" parent="1" vertex="1">
            <mxGeometry x="210" y="510" width="50" height="26" as="geometry" />
          </mxCell>
        </UserObject>
        <mxCell id="7sLhB7o1R7ILvc8eoV0f-5" value="" style="fontColor=#0066CC;verticalAlign=top;verticalLabelPosition=bottom;labelPosition=center;align=center;html=1;outlineConnect=0;fillColor=#CCCCCC;strokeColor=#6881B3;gradientColor=none;gradientDirection=north;strokeWidth=2;shape=mxgraph.networks.switch;" parent="1" vertex="1">
          <mxGeometry x="180" y="380" width="100" height="30" as="geometry" />
        </mxCell>
        <mxCell id="7sLhB7o1R7ILvc8eoV0f-9" value="" style="sketch=0;aspect=fixed;pointerEvents=1;shadow=0;dashed=0;html=1;strokeColor=none;labelPosition=center;verticalLabelPosition=bottom;verticalAlign=top;align=center;fillColor=#00188D;shape=mxgraph.mscae.enterprise.wireless_connection;rotation=-90;" parent="1" vertex="1">
          <mxGeometry x="209" y="330" width="42" height="50" as="geometry" />
        </mxCell>
        <mxCell id="7sLhB7o1R7ILvc8eoV0f-10" value="" style="sketch=0;aspect=fixed;pointerEvents=1;shadow=0;dashed=0;html=1;strokeColor=none;labelPosition=center;verticalLabelPosition=bottom;verticalAlign=top;align=center;fillColor=#00188D;shape=mxgraph.mscae.enterprise.router" parent="1" vertex="1">
          <mxGeometry x="190" y="280" width="79" height="61.62" as="geometry" />
        </mxCell>
      </root>
    </mxGraphModel>
  </diagram>
  <diagram id="ElCHXQXP82IoNYrYS7ia" name="SuperMicro DualSock">
    <mxGraphModel dx="1152" dy="1152" grid="1" gridSize="10" guides="1" tooltips="1" connect="1" arrows="1" fold="1" page="1" pageScale="1" pageWidth="850" pageHeight="1100" math="0" shadow="0">
      <root>
        <mxCell id="0" />
        <mxCell id="1" parent="0" />
      </root>
    </mxGraphModel>
  </diagram>
  <diagram id="j83oYdBpqzVburkKQ1tJ" name="Ceph">
    <mxGraphModel dx="1152" dy="1152" grid="1" gridSize="10" guides="1" tooltips="1" connect="1" arrows="1" fold="1" page="1" pageScale="1" pageWidth="850" pageHeight="1100" math="0" shadow="0">
      <root>
        <mxCell id="0" />
        <mxCell id="1" parent="0" />
        <mxCell id="AwaVexAP-3yjNLGgfEaI-5" style="edgeStyle=orthogonalEdgeStyle;rounded=0;orthogonalLoop=1;jettySize=auto;html=1;exitX=0.5;exitY=0;exitDx=0;exitDy=0;exitPerimeter=0;entryX=0.01;entryY=0.98;entryDx=0;entryDy=0;entryPerimeter=0;" edge="1" parent="1" source="AwaVexAP-3yjNLGgfEaI-1" target="AwaVexAP-3yjNLGgfEaI-4">
          <mxGeometry relative="1" as="geometry" />
        </mxCell>
        <UserObject label="Ceph-1" link="data:page/id,Vjd5sq-JhDC3Dur63Eyk" id="AwaVexAP-3yjNLGgfEaI-1">
          <mxCell style="sketch=0;aspect=fixed;pointerEvents=1;shadow=0;dashed=0;html=1;strokeColor=none;labelPosition=center;verticalLabelPosition=bottom;verticalAlign=top;align=center;fillColor=#00188D;shape=mxgraph.mscae.enterprise.server_generic" vertex="1" parent="1">
            <mxGeometry x="330" y="490" width="24" height="50" as="geometry" />
          </mxCell>
        </UserObject>
        <mxCell id="AwaVexAP-3yjNLGgfEaI-6" style="edgeStyle=orthogonalEdgeStyle;rounded=0;orthogonalLoop=1;jettySize=auto;html=1;exitX=0.5;exitY=0;exitDx=0;exitDy=0;exitPerimeter=0;entryX=0.5;entryY=1;entryDx=0;entryDy=0;entryPerimeter=0;" edge="1" parent="1" source="AwaVexAP-3yjNLGgfEaI-2" target="AwaVexAP-3yjNLGgfEaI-4">
          <mxGeometry relative="1" as="geometry" />
        </mxCell>
        <UserObject label="Ceph-2" link="data:page/id,dJAMB9YnKg-9HXfTzt0Q" id="AwaVexAP-3yjNLGgfEaI-2">
          <mxCell style="sketch=0;aspect=fixed;pointerEvents=1;shadow=0;dashed=0;html=1;strokeColor=none;labelPosition=center;verticalLabelPosition=bottom;verticalAlign=top;align=center;fillColor=#00188D;shape=mxgraph.mscae.enterprise.server_generic" vertex="1" parent="1">
            <mxGeometry x="450" y="490" width="24" height="50" as="geometry" />
          </mxCell>
        </UserObject>
        <mxCell id="AwaVexAP-3yjNLGgfEaI-7" style="edgeStyle=orthogonalEdgeStyle;rounded=0;orthogonalLoop=1;jettySize=auto;html=1;exitX=0.5;exitY=0;exitDx=0;exitDy=0;exitPerimeter=0;entryX=0.99;entryY=0.98;entryDx=0;entryDy=0;entryPerimeter=0;" edge="1" parent="1" source="AwaVexAP-3yjNLGgfEaI-3" target="AwaVexAP-3yjNLGgfEaI-4">
          <mxGeometry relative="1" as="geometry" />
        </mxCell>
        <UserObject label="Ceph-3" link="data:page/id,MnN-UX4BbHbzCIjnVO7I" id="AwaVexAP-3yjNLGgfEaI-3">
          <mxCell style="sketch=0;aspect=fixed;pointerEvents=1;shadow=0;dashed=0;html=1;strokeColor=none;labelPosition=center;verticalLabelPosition=bottom;verticalAlign=top;align=center;fillColor=#00188D;shape=mxgraph.mscae.enterprise.server_generic" vertex="1" parent="1">
            <mxGeometry x="570" y="490" width="24" height="50" as="geometry" />
          </mxCell>
        </UserObject>
        <mxCell id="AwaVexAP-3yjNLGgfEaI-4" value="10Gb SFP+ Switch" style="sketch=0;aspect=fixed;pointerEvents=1;shadow=0;dashed=0;html=1;strokeColor=none;labelPosition=center;verticalLabelPosition=top;verticalAlign=bottom;align=center;fillColor=#00188D;shape=mxgraph.mscae.enterprise.device" vertex="1" parent="1">
          <mxGeometry x="437" y="320" width="50" height="26" as="geometry" />
        </mxCell>
      </root>
    </mxGraphModel>
  </diagram>
  <diagram id="Vjd5sq-JhDC3Dur63Eyk" name="Ceph-1">
    <mxGraphModel dx="1152" dy="1152" grid="1" gridSize="10" guides="1" tooltips="1" connect="1" arrows="1" fold="1" page="1" pageScale="1" pageWidth="850" pageHeight="1100" math="0" shadow="0">
      <root>
        <mxCell id="0" />
        <mxCell id="1" parent="0" />
        <mxCell id="ApBoAAum1uApdB_s47ig-1" value="SFP+ NIC, Dual port" style="sketch=0;aspect=fixed;pointerEvents=1;shadow=0;dashed=0;html=1;strokeColor=none;labelPosition=center;verticalLabelPosition=bottom;verticalAlign=top;align=center;fillColor=#00188D;shape=mxgraph.mscae.enterprise.network_card" vertex="1" parent="1">
          <mxGeometry x="520" y="720" width="50" height="35" as="geometry" />
        </mxCell>
        <mxCell id="ApBoAAum1uApdB_s47ig-2" value="mITX/mATX 2U Chassis, 4~ 3.5&quot; drives" style="sketch=0;aspect=fixed;pointerEvents=1;shadow=0;dashed=0;html=1;strokeColor=none;labelPosition=center;verticalLabelPosition=top;verticalAlign=bottom;align=center;fillColor=#00188D;shape=mxgraph.mscae.enterprise.device" vertex="1" parent="1">
          <mxGeometry x="400" y="450" width="50" height="26" as="geometry" />
        </mxCell>
        <mxCell id="ApBoAAum1uApdB_s47ig-3" style="edgeStyle=orthogonalEdgeStyle;rounded=0;orthogonalLoop=1;jettySize=auto;html=1;exitX=1;exitY=0.505;exitDx=0;exitDy=0;exitPerimeter=0;" edge="1" parent="1" source="ApBoAAum1uApdB_s47ig-5" target="ApBoAAum1uApdB_s47ig-1">
          <mxGeometry relative="1" as="geometry" />
        </mxCell>
        <mxCell id="ApBoAAum1uApdB_s47ig-4" style="edgeStyle=orthogonalEdgeStyle;rounded=0;orthogonalLoop=1;jettySize=auto;html=1;exitX=0.5;exitY=0.03;exitDx=0;exitDy=0;exitPerimeter=0;entryX=0.5;entryY=1;entryDx=0;entryDy=0;entryPerimeter=0;" edge="1" parent="1" source="ApBoAAum1uApdB_s47ig-5" target="ApBoAAum1uApdB_s47ig-15">
          <mxGeometry relative="1" as="geometry" />
        </mxCell>
        <mxCell id="ApBoAAum1uApdB_s47ig-5" value="Ryzen 7 5700G" style="sketch=0;aspect=fixed;pointerEvents=1;shadow=0;dashed=0;html=1;strokeColor=none;labelPosition=left;verticalLabelPosition=middle;verticalAlign=middle;align=right;fillColor=#00188D;shape=mxgraph.mscae.enterprise.connectors" vertex="1" parent="1">
          <mxGeometry x="400" y="720" width="50" height="34" as="geometry" />
        </mxCell>
        <mxCell id="ApBoAAum1uApdB_s47ig-6" style="edgeStyle=orthogonalEdgeStyle;rounded=0;orthogonalLoop=1;jettySize=auto;html=1;exitX=1;exitY=0.5;exitDx=0;exitDy=0;exitPerimeter=0;entryX=0;entryY=0.5;entryDx=0;entryDy=0;entryPerimeter=0;" edge="1" parent="1" source="ApBoAAum1uApdB_s47ig-7" target="ApBoAAum1uApdB_s47ig-15">
          <mxGeometry relative="1" as="geometry" />
        </mxCell>
        <mxCell id="ApBoAAum1uApdB_s47ig-7" value="4TB 3.5&quot; HDD" style="sketch=0;aspect=fixed;pointerEvents=1;shadow=0;dashed=0;html=1;strokeColor=none;labelPosition=center;verticalLabelPosition=bottom;verticalAlign=top;align=center;fillColor=#00188D;shape=mxgraph.mscae.enterprise.database_generic" vertex="1" parent="1">
          <mxGeometry x="114.5" y="700" width="37" height="50" as="geometry" />
        </mxCell>
        <mxCell id="ApBoAAum1uApdB_s47ig-8" style="edgeStyle=orthogonalEdgeStyle;rounded=0;orthogonalLoop=1;jettySize=auto;html=1;exitX=1;exitY=0.5;exitDx=0;exitDy=0;exitPerimeter=0;entryX=0;entryY=0.5;entryDx=0;entryDy=0;entryPerimeter=0;" edge="1" parent="1" source="ApBoAAum1uApdB_s47ig-9" target="ApBoAAum1uApdB_s47ig-15">
          <mxGeometry relative="1" as="geometry" />
        </mxCell>
        <mxCell id="ApBoAAum1uApdB_s47ig-9" value="M.2 NVMe for OS" style="sketch=0;aspect=fixed;pointerEvents=1;shadow=0;dashed=0;html=1;strokeColor=none;labelPosition=center;verticalLabelPosition=top;verticalAlign=bottom;align=center;fillColor=#00188D;shape=mxgraph.mscae.enterprise.document" vertex="1" parent="1">
          <mxGeometry x="111.5" y="490" width="40" height="50" as="geometry" />
        </mxCell>
        <mxCell id="ApBoAAum1uApdB_s47ig-10" style="edgeStyle=orthogonalEdgeStyle;rounded=0;orthogonalLoop=1;jettySize=auto;html=1;exitX=1;exitY=0.5;exitDx=0;exitDy=0;exitPerimeter=0;entryX=0;entryY=0.5;entryDx=0;entryDy=0;entryPerimeter=0;" edge="1" parent="1" source="ApBoAAum1uApdB_s47ig-11" target="ApBoAAum1uApdB_s47ig-15">
          <mxGeometry relative="1" as="geometry" />
        </mxCell>
        <mxCell id="ApBoAAum1uApdB_s47ig-11" value="M.2 NVMe for Journaling" style="sketch=0;aspect=fixed;pointerEvents=1;shadow=0;dashed=0;html=1;strokeColor=none;labelPosition=center;verticalLabelPosition=bottom;verticalAlign=top;align=center;fillColor=#00188D;shape=mxgraph.mscae.enterprise.document" vertex="1" parent="1">
          <mxGeometry x="110" y="589" width="40" height="50" as="geometry" />
        </mxCell>
        <mxCell id="ApBoAAum1uApdB_s47ig-12" style="edgeStyle=orthogonalEdgeStyle;rounded=0;orthogonalLoop=1;jettySize=auto;html=1;exitX=0.5;exitY=0;exitDx=0;exitDy=0;exitPerimeter=0;entryX=0.5;entryY=0.97;entryDx=0;entryDy=0;entryPerimeter=0;" edge="1" parent="1" source="ApBoAAum1uApdB_s47ig-13" target="ApBoAAum1uApdB_s47ig-5">
          <mxGeometry relative="1" as="geometry" />
        </mxCell>
        <mxCell id="ApBoAAum1uApdB_s47ig-13" value="32-64GB Ram" style="sketch=0;aspect=fixed;pointerEvents=1;shadow=0;dashed=0;html=1;strokeColor=none;labelPosition=center;verticalLabelPosition=bottom;verticalAlign=top;align=center;fillColor=#00188D;shape=mxgraph.mscae.enterprise.storage" vertex="1" parent="1">
          <mxGeometry x="400" y="840" width="50" height="41" as="geometry" />
        </mxCell>
        <mxCell id="ApBoAAum1uApdB_s47ig-14" style="edgeStyle=orthogonalEdgeStyle;rounded=0;orthogonalLoop=1;jettySize=auto;html=1;exitX=0.5;exitY=0;exitDx=0;exitDy=0;exitPerimeter=0;entryX=0.5;entryY=1;entryDx=0;entryDy=0;entryPerimeter=0;" edge="1" parent="1" source="ApBoAAum1uApdB_s47ig-15" target="ApBoAAum1uApdB_s47ig-2">
          <mxGeometry relative="1" as="geometry" />
        </mxCell>
        <mxCell id="ApBoAAum1uApdB_s47ig-15" value="mITX/mATX motherboard" style="sketch=0;aspect=fixed;pointerEvents=1;shadow=0;dashed=0;html=1;strokeColor=none;labelPosition=center;verticalLabelPosition=bottom;verticalAlign=top;align=center;fillColor=#00188D;shape=mxgraph.mscae.enterprise.smartcard" vertex="1" parent="1">
          <mxGeometry x="400" y="598" width="50" height="32" as="geometry" />
        </mxCell>
      </root>
    </mxGraphModel>
  </diagram>
  <diagram id="dJAMB9YnKg-9HXfTzt0Q" name="Ceph-2">
    <mxGraphModel dx="1152" dy="1152" grid="1" gridSize="10" guides="1" tooltips="1" connect="1" arrows="1" fold="1" page="1" pageScale="1" pageWidth="850" pageHeight="1100" math="0" shadow="0">
      <root>
        <mxCell id="0" />
        <mxCell id="1" parent="0" />
        <mxCell id="Hj6cFRKGHhb9x1Fbf2D3-1" value="SFP+ NIC, Dual port" style="sketch=0;aspect=fixed;pointerEvents=1;shadow=0;dashed=0;html=1;strokeColor=none;labelPosition=center;verticalLabelPosition=bottom;verticalAlign=top;align=center;fillColor=#00188D;shape=mxgraph.mscae.enterprise.network_card" vertex="1" parent="1">
          <mxGeometry x="520" y="720" width="50" height="35" as="geometry" />
        </mxCell>
        <mxCell id="Hj6cFRKGHhb9x1Fbf2D3-2" value="mITX/mATX 2U Chassis, 4~ 3.5&quot; drives" style="sketch=0;aspect=fixed;pointerEvents=1;shadow=0;dashed=0;html=1;strokeColor=none;labelPosition=center;verticalLabelPosition=top;verticalAlign=bottom;align=center;fillColor=#00188D;shape=mxgraph.mscae.enterprise.device" vertex="1" parent="1">
          <mxGeometry x="400" y="450" width="50" height="26" as="geometry" />
        </mxCell>
        <mxCell id="Hj6cFRKGHhb9x1Fbf2D3-3" style="edgeStyle=orthogonalEdgeStyle;rounded=0;orthogonalLoop=1;jettySize=auto;html=1;exitX=1;exitY=0.505;exitDx=0;exitDy=0;exitPerimeter=0;" edge="1" parent="1" source="Hj6cFRKGHhb9x1Fbf2D3-5" target="Hj6cFRKGHhb9x1Fbf2D3-1">
          <mxGeometry relative="1" as="geometry" />
        </mxCell>
        <mxCell id="Hj6cFRKGHhb9x1Fbf2D3-4" style="edgeStyle=orthogonalEdgeStyle;rounded=0;orthogonalLoop=1;jettySize=auto;html=1;exitX=0.5;exitY=0.03;exitDx=0;exitDy=0;exitPerimeter=0;entryX=0.5;entryY=1;entryDx=0;entryDy=0;entryPerimeter=0;" edge="1" parent="1" source="Hj6cFRKGHhb9x1Fbf2D3-5" target="Hj6cFRKGHhb9x1Fbf2D3-15">
          <mxGeometry relative="1" as="geometry" />
        </mxCell>
        <mxCell id="Hj6cFRKGHhb9x1Fbf2D3-5" value="Ryzen 7 5700G" style="sketch=0;aspect=fixed;pointerEvents=1;shadow=0;dashed=0;html=1;strokeColor=none;labelPosition=left;verticalLabelPosition=middle;verticalAlign=middle;align=right;fillColor=#00188D;shape=mxgraph.mscae.enterprise.connectors" vertex="1" parent="1">
          <mxGeometry x="400" y="720" width="50" height="34" as="geometry" />
        </mxCell>
        <mxCell id="Hj6cFRKGHhb9x1Fbf2D3-6" style="edgeStyle=orthogonalEdgeStyle;rounded=0;orthogonalLoop=1;jettySize=auto;html=1;exitX=1;exitY=0.5;exitDx=0;exitDy=0;exitPerimeter=0;entryX=0;entryY=0.5;entryDx=0;entryDy=0;entryPerimeter=0;" edge="1" parent="1" source="Hj6cFRKGHhb9x1Fbf2D3-7" target="Hj6cFRKGHhb9x1Fbf2D3-15">
          <mxGeometry relative="1" as="geometry" />
        </mxCell>
        <mxCell id="Hj6cFRKGHhb9x1Fbf2D3-7" value="4TB 3.5&quot; HDD" style="sketch=0;aspect=fixed;pointerEvents=1;shadow=0;dashed=0;html=1;strokeColor=none;labelPosition=center;verticalLabelPosition=bottom;verticalAlign=top;align=center;fillColor=#00188D;shape=mxgraph.mscae.enterprise.database_generic" vertex="1" parent="1">
          <mxGeometry x="114.5" y="700" width="37" height="50" as="geometry" />
        </mxCell>
        <mxCell id="Hj6cFRKGHhb9x1Fbf2D3-8" style="edgeStyle=orthogonalEdgeStyle;rounded=0;orthogonalLoop=1;jettySize=auto;html=1;exitX=1;exitY=0.5;exitDx=0;exitDy=0;exitPerimeter=0;entryX=0;entryY=0.5;entryDx=0;entryDy=0;entryPerimeter=0;" edge="1" parent="1" source="Hj6cFRKGHhb9x1Fbf2D3-9" target="Hj6cFRKGHhb9x1Fbf2D3-15">
          <mxGeometry relative="1" as="geometry" />
        </mxCell>
        <mxCell id="Hj6cFRKGHhb9x1Fbf2D3-9" value="M.2 NVMe for OS" style="sketch=0;aspect=fixed;pointerEvents=1;shadow=0;dashed=0;html=1;strokeColor=none;labelPosition=center;verticalLabelPosition=top;verticalAlign=bottom;align=center;fillColor=#00188D;shape=mxgraph.mscae.enterprise.document" vertex="1" parent="1">
          <mxGeometry x="111.5" y="490" width="40" height="50" as="geometry" />
        </mxCell>
        <mxCell id="Hj6cFRKGHhb9x1Fbf2D3-10" style="edgeStyle=orthogonalEdgeStyle;rounded=0;orthogonalLoop=1;jettySize=auto;html=1;exitX=1;exitY=0.5;exitDx=0;exitDy=0;exitPerimeter=0;entryX=0;entryY=0.5;entryDx=0;entryDy=0;entryPerimeter=0;" edge="1" parent="1" source="Hj6cFRKGHhb9x1Fbf2D3-11" target="Hj6cFRKGHhb9x1Fbf2D3-15">
          <mxGeometry relative="1" as="geometry" />
        </mxCell>
        <mxCell id="Hj6cFRKGHhb9x1Fbf2D3-11" value="M.2 NVMe for Journaling" style="sketch=0;aspect=fixed;pointerEvents=1;shadow=0;dashed=0;html=1;strokeColor=none;labelPosition=center;verticalLabelPosition=bottom;verticalAlign=top;align=center;fillColor=#00188D;shape=mxgraph.mscae.enterprise.document" vertex="1" parent="1">
          <mxGeometry x="110" y="589" width="40" height="50" as="geometry" />
        </mxCell>
        <mxCell id="Hj6cFRKGHhb9x1Fbf2D3-12" style="edgeStyle=orthogonalEdgeStyle;rounded=0;orthogonalLoop=1;jettySize=auto;html=1;exitX=0.5;exitY=0;exitDx=0;exitDy=0;exitPerimeter=0;entryX=0.5;entryY=0.97;entryDx=0;entryDy=0;entryPerimeter=0;" edge="1" parent="1" source="Hj6cFRKGHhb9x1Fbf2D3-13" target="Hj6cFRKGHhb9x1Fbf2D3-5">
          <mxGeometry relative="1" as="geometry" />
        </mxCell>
        <mxCell id="Hj6cFRKGHhb9x1Fbf2D3-13" value="32-64GB Ram" style="sketch=0;aspect=fixed;pointerEvents=1;shadow=0;dashed=0;html=1;strokeColor=none;labelPosition=center;verticalLabelPosition=bottom;verticalAlign=top;align=center;fillColor=#00188D;shape=mxgraph.mscae.enterprise.storage" vertex="1" parent="1">
          <mxGeometry x="400" y="840" width="50" height="41" as="geometry" />
        </mxCell>
        <mxCell id="Hj6cFRKGHhb9x1Fbf2D3-14" style="edgeStyle=orthogonalEdgeStyle;rounded=0;orthogonalLoop=1;jettySize=auto;html=1;exitX=0.5;exitY=0;exitDx=0;exitDy=0;exitPerimeter=0;entryX=0.5;entryY=1;entryDx=0;entryDy=0;entryPerimeter=0;" edge="1" parent="1" source="Hj6cFRKGHhb9x1Fbf2D3-15" target="Hj6cFRKGHhb9x1Fbf2D3-2">
          <mxGeometry relative="1" as="geometry" />
        </mxCell>
        <mxCell id="Hj6cFRKGHhb9x1Fbf2D3-15" value="mITX/mATX motherboard" style="sketch=0;aspect=fixed;pointerEvents=1;shadow=0;dashed=0;html=1;strokeColor=none;labelPosition=center;verticalLabelPosition=bottom;verticalAlign=top;align=center;fillColor=#00188D;shape=mxgraph.mscae.enterprise.smartcard" vertex="1" parent="1">
          <mxGeometry x="400" y="598" width="50" height="32" as="geometry" />
        </mxCell>
      </root>
    </mxGraphModel>
  </diagram>
  <diagram id="MnN-UX4BbHbzCIjnVO7I" name="Ceph-3">
    <mxGraphModel dx="1152" dy="1152" grid="1" gridSize="10" guides="1" tooltips="1" connect="1" arrows="1" fold="1" page="1" pageScale="1" pageWidth="850" pageHeight="1100" math="0" shadow="0">
      <root>
        <mxCell id="0" />
        <mxCell id="1" parent="0" />
        <mxCell id="WTUsXe7EHXzarnpLnSN8-1" value="SFP+ NIC, Dual port" style="sketch=0;aspect=fixed;pointerEvents=1;shadow=0;dashed=0;html=1;strokeColor=none;labelPosition=center;verticalLabelPosition=bottom;verticalAlign=top;align=center;fillColor=#00188D;shape=mxgraph.mscae.enterprise.network_card" vertex="1" parent="1">
          <mxGeometry x="520" y="720" width="50" height="35" as="geometry" />
        </mxCell>
        <mxCell id="WTUsXe7EHXzarnpLnSN8-6" value="mITX/mATX 2U Chassis, 4~ 3.5&quot; drives" style="sketch=0;aspect=fixed;pointerEvents=1;shadow=0;dashed=0;html=1;strokeColor=none;labelPosition=center;verticalLabelPosition=top;verticalAlign=bottom;align=center;fillColor=#00188D;shape=mxgraph.mscae.enterprise.device" vertex="1" parent="1">
          <mxGeometry x="400" y="450" width="50" height="26" as="geometry" />
        </mxCell>
        <mxCell id="WTUsXe7EHXzarnpLnSN8-7" style="edgeStyle=orthogonalEdgeStyle;rounded=0;orthogonalLoop=1;jettySize=auto;html=1;exitX=1;exitY=0.505;exitDx=0;exitDy=0;exitPerimeter=0;" edge="1" parent="1" source="WTUsXe7EHXzarnpLnSN8-8" target="WTUsXe7EHXzarnpLnSN8-1">
          <mxGeometry relative="1" as="geometry" />
        </mxCell>
        <mxCell id="NJ7LlG7DpJsIjzuGmJOf-6" style="edgeStyle=orthogonalEdgeStyle;rounded=0;orthogonalLoop=1;jettySize=auto;html=1;exitX=0.5;exitY=0.03;exitDx=0;exitDy=0;exitPerimeter=0;entryX=0.5;entryY=1;entryDx=0;entryDy=0;entryPerimeter=0;" edge="1" parent="1" source="WTUsXe7EHXzarnpLnSN8-8" target="NJ7LlG7DpJsIjzuGmJOf-4">
          <mxGeometry relative="1" as="geometry" />
        </mxCell>
        <mxCell id="WTUsXe7EHXzarnpLnSN8-8" value="Ryzen 7 5700G" style="sketch=0;aspect=fixed;pointerEvents=1;shadow=0;dashed=0;html=1;strokeColor=none;labelPosition=left;verticalLabelPosition=middle;verticalAlign=middle;align=right;fillColor=#00188D;shape=mxgraph.mscae.enterprise.connectors" vertex="1" parent="1">
          <mxGeometry x="400" y="720" width="50" height="34" as="geometry" />
        </mxCell>
        <mxCell id="NJ7LlG7DpJsIjzuGmJOf-9" style="edgeStyle=orthogonalEdgeStyle;rounded=0;orthogonalLoop=1;jettySize=auto;html=1;exitX=1;exitY=0.5;exitDx=0;exitDy=0;exitPerimeter=0;entryX=0;entryY=0.5;entryDx=0;entryDy=0;entryPerimeter=0;" edge="1" parent="1" source="WTUsXe7EHXzarnpLnSN8-9" target="NJ7LlG7DpJsIjzuGmJOf-4">
          <mxGeometry relative="1" as="geometry" />
        </mxCell>
        <mxCell id="WTUsXe7EHXzarnpLnSN8-9" value="4TB 3.5&quot; HDD" style="sketch=0;aspect=fixed;pointerEvents=1;shadow=0;dashed=0;html=1;strokeColor=none;labelPosition=center;verticalLabelPosition=bottom;verticalAlign=top;align=center;fillColor=#00188D;shape=mxgraph.mscae.enterprise.database_generic" vertex="1" parent="1">
          <mxGeometry x="114.5" y="700" width="37" height="50" as="geometry" />
        </mxCell>
        <mxCell id="NJ7LlG7DpJsIjzuGmJOf-10" style="edgeStyle=orthogonalEdgeStyle;rounded=0;orthogonalLoop=1;jettySize=auto;html=1;exitX=1;exitY=0.5;exitDx=0;exitDy=0;exitPerimeter=0;entryX=0;entryY=0.5;entryDx=0;entryDy=0;entryPerimeter=0;" edge="1" parent="1" source="WTUsXe7EHXzarnpLnSN8-10" target="NJ7LlG7DpJsIjzuGmJOf-4">
          <mxGeometry relative="1" as="geometry" />
        </mxCell>
        <mxCell id="WTUsXe7EHXzarnpLnSN8-10" value="M.2 NVMe for OS" style="sketch=0;aspect=fixed;pointerEvents=1;shadow=0;dashed=0;html=1;strokeColor=none;labelPosition=center;verticalLabelPosition=top;verticalAlign=bottom;align=center;fillColor=#00188D;shape=mxgraph.mscae.enterprise.document" vertex="1" parent="1">
          <mxGeometry x="111.5" y="490" width="40" height="50" as="geometry" />
        </mxCell>
        <mxCell id="NJ7LlG7DpJsIjzuGmJOf-8" style="edgeStyle=orthogonalEdgeStyle;rounded=0;orthogonalLoop=1;jettySize=auto;html=1;exitX=1;exitY=0.5;exitDx=0;exitDy=0;exitPerimeter=0;entryX=0;entryY=0.5;entryDx=0;entryDy=0;entryPerimeter=0;" edge="1" parent="1" source="WTUsXe7EHXzarnpLnSN8-11" target="NJ7LlG7DpJsIjzuGmJOf-4">
          <mxGeometry relative="1" as="geometry" />
        </mxCell>
        <mxCell id="WTUsXe7EHXzarnpLnSN8-11" value="M.2 NVMe for Journaling" style="sketch=0;aspect=fixed;pointerEvents=1;shadow=0;dashed=0;html=1;strokeColor=none;labelPosition=center;verticalLabelPosition=bottom;verticalAlign=top;align=center;fillColor=#00188D;shape=mxgraph.mscae.enterprise.document" vertex="1" parent="1">
          <mxGeometry x="110" y="589" width="40" height="50" as="geometry" />
        </mxCell>
        <mxCell id="WTUsXe7EHXzarnpLnSN8-12" style="edgeStyle=orthogonalEdgeStyle;rounded=0;orthogonalLoop=1;jettySize=auto;html=1;exitX=0.5;exitY=0;exitDx=0;exitDy=0;exitPerimeter=0;entryX=0.5;entryY=0.97;entryDx=0;entryDy=0;entryPerimeter=0;" edge="1" parent="1" source="WTUsXe7EHXzarnpLnSN8-13" target="WTUsXe7EHXzarnpLnSN8-8">
          <mxGeometry relative="1" as="geometry" />
        </mxCell>
        <mxCell id="WTUsXe7EHXzarnpLnSN8-13" value="32-64GB Ram" style="sketch=0;aspect=fixed;pointerEvents=1;shadow=0;dashed=0;html=1;strokeColor=none;labelPosition=center;verticalLabelPosition=bottom;verticalAlign=top;align=center;fillColor=#00188D;shape=mxgraph.mscae.enterprise.storage" vertex="1" parent="1">
          <mxGeometry x="400" y="840" width="50" height="41" as="geometry" />
        </mxCell>
        <mxCell id="NJ7LlG7DpJsIjzuGmJOf-11" style="edgeStyle=orthogonalEdgeStyle;rounded=0;orthogonalLoop=1;jettySize=auto;html=1;exitX=0.5;exitY=0;exitDx=0;exitDy=0;exitPerimeter=0;entryX=0.5;entryY=1;entryDx=0;entryDy=0;entryPerimeter=0;" edge="1" parent="1" source="NJ7LlG7DpJsIjzuGmJOf-4" target="WTUsXe7EHXzarnpLnSN8-6">
          <mxGeometry relative="1" as="geometry" />
        </mxCell>
        <mxCell id="NJ7LlG7DpJsIjzuGmJOf-4" value="mITX/mATX motherboard" style="sketch=0;aspect=fixed;pointerEvents=1;shadow=0;dashed=0;html=1;strokeColor=none;labelPosition=center;verticalLabelPosition=bottom;verticalAlign=top;align=center;fillColor=#00188D;shape=mxgraph.mscae.enterprise.smartcard" vertex="1" parent="1">
          <mxGeometry x="400" y="598" width="50" height="32" as="geometry" />
        </mxCell>
      </root>
    </mxGraphModel>
  </diagram>
  <diagram id="f75ZTOVikK77dWQOuikO" name="JellyHive">
    <mxGraphModel dx="1152" dy="1152" grid="1" gridSize="10" guides="1" tooltips="1" connect="1" arrows="1" fold="1" page="1" pageScale="1" pageWidth="850" pageHeight="1100" math="0" shadow="0">
      <root>
        <mxCell id="0" />
        <mxCell id="1" parent="0" />
        <mxCell id="AMo5JXxU8uF4BOOdNNoE-17" style="edgeStyle=orthogonalEdgeStyle;rounded=0;orthogonalLoop=1;jettySize=auto;html=1;exitX=0;exitY=0.5;exitDx=0;exitDy=0;exitPerimeter=0;" edge="1" parent="1" source="AMo5JXxU8uF4BOOdNNoE-1" target="AMo5JXxU8uF4BOOdNNoE-8">
          <mxGeometry relative="1" as="geometry" />
        </mxCell>
        <mxCell id="AMo5JXxU8uF4BOOdNNoE-1" value="SFP+ NIC, Dual port" style="sketch=0;aspect=fixed;pointerEvents=1;shadow=0;dashed=0;html=1;strokeColor=none;labelPosition=center;verticalLabelPosition=bottom;verticalAlign=top;align=center;fillColor=#00188D;shape=mxgraph.mscae.enterprise.network_card" vertex="1" parent="1">
          <mxGeometry x="520" y="560" width="50" height="35" as="geometry" />
        </mxCell>
        <mxCell id="AMo5JXxU8uF4BOOdNNoE-6" value="mITX/mATX 2U Chassis" style="sketch=0;aspect=fixed;pointerEvents=1;shadow=0;dashed=0;html=1;strokeColor=none;labelPosition=center;verticalLabelPosition=top;verticalAlign=bottom;align=center;fillColor=#00188D;shape=mxgraph.mscae.enterprise.device" vertex="1" parent="1">
          <mxGeometry x="400" y="450" width="50" height="26" as="geometry" />
        </mxCell>
        <mxCell id="AMo5JXxU8uF4BOOdNNoE-15" style="edgeStyle=orthogonalEdgeStyle;rounded=0;orthogonalLoop=1;jettySize=auto;html=1;exitX=0.5;exitY=0.03;exitDx=0;exitDy=0;exitPerimeter=0;entryX=0.5;entryY=1;entryDx=0;entryDy=0;entryPerimeter=0;" edge="1" parent="1" source="AMo5JXxU8uF4BOOdNNoE-8" target="AMo5JXxU8uF4BOOdNNoE-6">
          <mxGeometry relative="1" as="geometry" />
        </mxCell>
        <mxCell id="AMo5JXxU8uF4BOOdNNoE-8" value="i5-11400" style="sketch=0;aspect=fixed;pointerEvents=1;shadow=0;dashed=0;html=1;strokeColor=none;labelPosition=left;verticalLabelPosition=middle;verticalAlign=middle;align=right;fillColor=#00188D;shape=mxgraph.mscae.enterprise.connectors" vertex="1" parent="1">
          <mxGeometry x="400" y="560" width="50" height="34" as="geometry" />
        </mxCell>
        <mxCell id="AMo5JXxU8uF4BOOdNNoE-16" style="edgeStyle=orthogonalEdgeStyle;rounded=0;orthogonalLoop=1;jettySize=auto;html=1;exitX=1;exitY=0.5;exitDx=0;exitDy=0;exitPerimeter=0;entryX=0.03;entryY=0.5;entryDx=0;entryDy=0;entryPerimeter=0;" edge="1" parent="1" source="AMo5JXxU8uF4BOOdNNoE-10" target="AMo5JXxU8uF4BOOdNNoE-6">
          <mxGeometry relative="1" as="geometry" />
        </mxCell>
        <mxCell id="AMo5JXxU8uF4BOOdNNoE-10" value="M.2 NVMe for OS" style="sketch=0;aspect=fixed;pointerEvents=1;shadow=0;dashed=0;html=1;strokeColor=none;labelPosition=center;verticalLabelPosition=top;verticalAlign=bottom;align=center;fillColor=#00188D;shape=mxgraph.mscae.enterprise.document" vertex="1" parent="1">
          <mxGeometry x="270" y="438" width="40" height="50" as="geometry" />
        </mxCell>
        <mxCell id="AMo5JXxU8uF4BOOdNNoE-12" style="edgeStyle=orthogonalEdgeStyle;rounded=0;orthogonalLoop=1;jettySize=auto;html=1;exitX=0.5;exitY=0;exitDx=0;exitDy=0;exitPerimeter=0;entryX=0.5;entryY=0.97;entryDx=0;entryDy=0;entryPerimeter=0;" edge="1" parent="1" source="AMo5JXxU8uF4BOOdNNoE-13" target="AMo5JXxU8uF4BOOdNNoE-8">
          <mxGeometry relative="1" as="geometry" />
        </mxCell>
        <mxCell id="AMo5JXxU8uF4BOOdNNoE-13" value="32-64GB Ram" style="sketch=0;aspect=fixed;pointerEvents=1;shadow=0;dashed=0;html=1;strokeColor=none;labelPosition=center;verticalLabelPosition=bottom;verticalAlign=top;align=center;fillColor=#00188D;shape=mxgraph.mscae.enterprise.storage" vertex="1" parent="1">
          <mxGeometry x="400" y="680" width="50" height="41" as="geometry" />
        </mxCell>
      </root>
    </mxGraphModel>
  </diagram>
</mxfile>
